<svg enable-background="new 0 0 512 512" height="512" viewBox="0 0 512 512" width="512" xmlns="http://www.w3.org/2000/svg" xmlns:xlink="http://www.w3.org/1999/xlink"><linearGradient id="SVGID_1_" gradientUnits="userSpaceOnUse" x1="102.072" x2="459.986" y1="472.124" y2="114.209"><stop offset="0" stop-color="#7a34f4"/><stop offset=".344" stop-color="#6473f6"/><stop offset=".6365" stop-color="#54a2f8"/><stop offset=".8603" stop-color="#4abef9"/><stop offset=".9888" stop-color="#46c9f9"/></linearGradient><g id="_x37_0_padlock"><path d="m279.829 268.666c-15.261 15.225-12.853 40.393 4.565 52.517v20.145c0 10.862 8.837 19.699 19.699 19.699 10.867 0 19.704-8.837 19.704-19.699v-20.094c16.642-11.678 19.944-35.168 5.522-51.12-13.848-15.295-36.018-14.867-49.49-1.448zm36.199 45.239c-1.604.921-2.597 2.637-2.597 4.49v22.933c0 5.147-4.191 9.333-9.338 9.333s-9.333-4.186-9.333-9.333v-22.999c0-1.863-1.002-3.583-2.622-4.505-13.555-7.705-16.329-26.513-4.986-37.819 9.48-9.459 24.823-9.611 34.478 1.068 10.844 11.969 7.333 29.384-5.602 36.832zm114.667-136.916h-8.321v-51.475c0-65.222-53.064-118.286-118.286-118.286s-118.285 53.064-118.285 118.286v51.475h-8.321c-16.85 0-30.561 13.711-30.561 30.561v57.818c-5.25 1.083-10.067 3.782-13.681 7.783-17.492 19.37-37.121 30.156-59.998 32.97-12.239 1.503-21.572 11.636-22.189 24.087-3.69 74.368 25.753 131.795 87.507 170.682 8.232 5.174 18.861 5.177 27.069.005 25.769-16.212 45.827-35.693 60.285-58.237h204.782c16.85 0 30.561-13.711 30.561-30.561v-204.548c-.001-16.849-13.712-30.56-30.562-30.56zm-234.526-51.475c0-59.507 48.413-107.92 107.92-107.92s107.92 48.413 107.92 107.92v51.475h-44.617v-51.475c0-34.904-28.4-63.298-63.303-63.298s-63.299 28.394-63.299 63.298v51.475h-44.622v-51.475zm160.857 51.475h-105.87v-51.475c0-29.189 23.743-52.932 52.932-52.932s52.938 23.743 52.938 52.932zm-196.92 315.129c-4.864 3.067-11.155 3.062-16.019-.005-58.353-36.741-86.171-91.04-82.678-161.389.364-7.41 5.876-13.428 13.099-14.319 25.11-3.082 47.456-15.301 66.426-36.311 2.814-3.118 6.889-4.905 11.171-4.905h.005c4.282 0 8.351 1.787 11.166 4.899 18.996 21.01 41.342 33.228 66.421 36.316 7.218.891 12.724 6.904 13.094 14.304 3.536 70.365-24.281 124.669-82.685 161.41zm290.784-80.021c0 11.135-9.06 20.195-20.195 20.195h-198.652c15.918-29.306 23.046-63.384 21.102-102.099-.623-12.446-9.956-22.569-22.184-24.072-22.852-2.819-42.476-13.605-59.993-32.985-3.614-3.997-8.431-6.689-13.681-7.769v-57.817c0-11.135 9.06-20.195 20.195-20.195h253.213c11.135 0 20.195 9.06 20.195 20.195zm-306.95-25.596 20.554-20.549c2.025-2.025 5.304-2.025 7.329 0s2.025 5.304 0 7.329l-24.219 24.214c-2.025 2.025-5.304 2.025-7.329 0l-7.891-7.891c-2.025-2.025-2.025-5.304 0-7.329s5.304-2.025 7.329 0zm75.03-51.641c-23.434-4.535-44.718-15.954-63.253-33.937-2.014-1.954-5.213-1.954-7.218 0-18.52 17.983-39.803 29.402-63.263 33.937-2.414.466-4.171 2.561-4.201 5.021-.714 57.26 21.587 100.373 68.167 131.81 1.746 1.181 4.054 1.181 5.8 0 46.616-31.442 68.911-74.56 68.162-131.81-.028-2.46-1.784-4.556-4.194-5.021zm-66.866 126.242c-40.385-28.379-60.282-66.705-60.712-116.949 22.316-5.082 42.703-15.959 60.717-32.393 18.034 16.434 38.416 27.311 60.702 32.393-.395 50.244-20.287 88.564-60.707 116.949zm-45.634-79.384c0 25.171 20.473 45.644 45.639 45.644 25.16 0 45.629-20.473 45.629-45.644 0-25.16-20.468-45.629-45.629-45.629-25.166.001-45.639 20.469-45.639 45.629zm80.902 0c0 19.451-15.817 35.278-35.263 35.278-19.451 0-35.273-15.827-35.273-35.278 0-19.446 15.822-35.263 35.273-35.263 19.446 0 35.263 15.817 35.263 35.263z" fill="url(#SVGID_1_)"/></g></svg>