<svg id="Layer_1" height="512" viewBox="0 0 64 64" width="512" xmlns="http://www.w3.org/2000/svg" xmlns:xlink="http://www.w3.org/1999/xlink"><linearGradient id="SVGID_1_" gradientUnits="userSpaceOnUse" x1="23.634" x2="40.366" y1="45.17" y2="54.83"><stop offset="0" stop-color="#ffddf3"/><stop offset="1" stop-color="#7900e9"/></linearGradient><path d="m22 48h20v4h-20z" fill="url(#SVGID_1_)"/><g><path d="m32 20c-.553 0-1-.448-1-1v-2c0-.552.447-1 1-1s1 .448 1 1v2c0 .552-.447 1-1 1z" fill="#541491"/></g><g><path d="m47 33h-2c-.553 0-1-.448-1-1s.447-1 1-1h2c.553 0 1 .448 1 1s-.447 1-1 1z" fill="#541491"/></g><g><path d="m19 33h-2c-.553 0-1-.448-1-1s.447-1 1-1h2c.553 0 1 .448 1 1s-.447 1-1 1z" fill="#541491"/></g><g><path d="m25.501 21.742c-.346 0-.682-.179-.867-.5l-1-1.732c-.276-.478-.112-1.09.366-1.366.477-.276 1.089-.112 1.366.366l1 1.732c.276.478.112 1.09-.366 1.366-.157.091-.329.134-.499.134z" fill="#541491"/></g><g><path d="m43.259 26.5c-.346 0-.682-.179-.867-.5-.276-.479-.112-1.09.366-1.366l1.732-1c.477-.277 1.089-.112 1.366.366.276.479.112 1.09-.366 1.366l-1.732 1c-.157.091-.329.134-.499.134z" fill="#541491"/></g><g><path d="m19.011 40.5c-.346 0-.682-.179-.867-.5-.276-.479-.112-1.09.366-1.366l1.732-1c.476-.277 1.089-.113 1.366.366.276.479.112 1.09-.366 1.366l-1.732 1c-.157.091-.329.134-.499.134z" fill="#541491"/></g><g><path d="m20.741 26.5c-.17 0-.342-.043-.499-.134l-1.732-1c-.479-.276-.643-.888-.366-1.366s.889-.643 1.366-.366l1.732 1c.479.276.643.888.366 1.366-.185.321-.521.5-.867.5z" fill="#541491"/></g><g><path d="m38.499 21.742c-.17 0-.342-.043-.499-.134-.479-.276-.643-.888-.366-1.366l1-1.732c.276-.479.889-.643 1.366-.366.479.276.643.888.366 1.366l-1 1.732c-.185.321-.521.5-.867.5z" fill="#541491"/></g><g><path d="m44.989 40.5c-.17 0-.342-.043-.499-.134l-1.732-1c-.479-.276-.643-.888-.366-1.366.277-.479.888-.643 1.366-.366l1.732 1c.479.276.643.888.366 1.366-.185.321-.521.5-.867.5z" fill="#541491"/></g><g><path d="m33.897 33.634c-.104 0-.212-.017-.316-.052-.524-.175-.807-.742-.632-1.266l3.103-9.293c.175-.523.741-.805 1.265-.632.524.175.807.742.632 1.266l-3.103 9.293c-.14.419-.53.684-.949.684z" fill="#541491"/></g><g><path d="m30.503 31.674c-.236 0-.473-.083-.663-.251-.413-.366-.452-.998-.085-1.412l6.497-7.334c.367-.414.998-.45 1.411-.085.413.366.452.998.085 1.412l-6.497 7.334c-.197.222-.472.336-.748.336z" fill="#541491"/></g><g><path d="m32.198 34.967c-1.205 0-2.427-.746-2.957-1.829-.511-1.042-.324-2.183.514-3.127.366-.414.999-.451 1.411-.085.413.366.451.998.085 1.412-.384.434-.306.733-.214.921.202.414.775.734 1.219.707.208-.014.507-.096.693-.651.177-.523.739-.805 1.268-.629.523.176.805.743.629 1.267-.404 1.201-1.301 1.933-2.459 2.009-.063.003-.126.005-.189.005z" fill="#541491"/></g><g><path d="m42 55h-20c-1.654 0-3-1.346-3-3v-4c0-1.654 1.346-3 3-3h20c1.654 0 3 1.346 3 3v4c0 1.654-1.346 3-3 3zm-20-8c-.552 0-1 .449-1 1v4c0 .551.448 1 1 1h20c.552 0 1-.449 1-1v-4c0-.551-.448-1-1-1z" fill="#541491"/></g><g><path d="m45.897 44.438c-.224 0-.448-.075-.635-.228-.426-.351-.487-.981-.137-1.408 5.683-6.903 4.918-17.398-1.704-23.395-6.637-6.009-17.159-5.747-23.458.584-6.097 6.125-6.575 16.146-1.09 22.811.351.426.289 1.057-.137 1.407-.428.352-1.057.29-1.408-.137-6.13-7.449-5.596-18.647 1.217-25.493 7.044-7.075 18.805-7.37 26.218-.656 7.402 6.703 8.258 18.434 1.907 26.149-.197.242-.483.366-.773.366z" fill="#541491"/></g><g><path d="m16.059 48.162c-.265 0-.528-.104-.725-.311-5.724-6.018-7.773-15.017-5.224-22.926 2.514-7.792 9.325-13.867 17.353-15.475 9.786-1.965 19.963 2.783 24.737 11.539 4.724 8.662 3.27 19.708-3.534 26.862-.38.401-1.013.417-1.414.036-.399-.38-.416-1.014-.035-1.414 6.213-6.533 7.54-16.619 3.228-24.526-4.36-7.995-13.645-12.328-22.59-10.536-7.328 1.468-13.547 7.014-15.841 14.128-2.329 7.222-.458 15.438 4.769 20.934.381.4.364 1.033-.035 1.414-.193.183-.441.275-.689.275z" fill="#541491"/></g></svg>