<svg id="Layer_1" enable-background="new 0 0 512 512" viewBox="0 0 512 512" xmlns="http://www.w3.org/2000/svg" xmlns:xlink="http://www.w3.org/1999/xlink"><linearGradient id="SVGID_1_" gradientUnits="userSpaceOnUse" x1="44.096" x2="467.904" y1="256" y2="256"><stop offset="0" stop-color="#a647fe"/><stop offset=".1488" stop-color="#a04cfc"/><stop offset=".3414" stop-color="#905af8"/><stop offset=".5582" stop-color="#7571f0"/><stop offset=".7908" stop-color="#5191e5"/><stop offset="1" stop-color="#29b4d9"/></linearGradient><path d="m465.56 71.28-68.91-68.93c-2.29-2.29-5.72-2.97-8.71-1.73s-4.94 4.15-4.94 7.39v36.68c-32.17-.1-67.39 1.62-94.17 11.71-30.05 11.32-47.11 32.31-50.83 62.42-2.47.74-4.5 2.63-5.33 5.17l-6.54 20.09c-9.39 2.55-18.38 6.28-26.83 11.13l-18.81-9.58c-3.08-1.57-6.83-.98-9.28 1.47l-22.25 22.22c-2.45 2.45-3.05 6.2-1.48 9.29l7.15 14.05 2.45 4.77c-4.87 8.47-8.6 17.47-11.13 26.84l-20.07 6.51c-3.29 1.07-5.53 4.14-5.53 7.6v31.46c0 3.46 2.23 6.53 5.53 7.6l20.05 6.51c2.55 9.39 6.28 18.39 11.15 26.85l-9.6 18.81c-1.58 3.09-.98 6.84 1.48 9.29l22.25 22.22c2.45 2.45 6.2 3.04 9.29 1.47l18.8-9.58c8.45 4.87 17.44 8.6 26.84 11.13l6.54 20.08c.53 1.63 1.55 2.99 2.86 3.96-8.79 10.13-22.98 15.72-52.8 15.45-14.63-.12-22.97-.24-31.8-.37-6.33-.09-12.84-.19-21.96-.29v-36.79c0-3.23-1.95-6.15-4.94-7.39s-6.42-.55-8.71 1.73l-68.91 68.91c-3.12 3.12-3.12 8.18 0 11.3l68.91 68.91c1.53 1.53 3.57 2.34 5.65 2.34 1.03 0 2.07-.2 3.06-.61 2.99-1.24 4.94-4.15 4.94-7.39v-36.68c34.14.11 68.74-1.69 95.74-12.32 30.33-11.94 47-34.04 49.65-65.74 2.29-.81 4.15-2.64 4.94-5.05l6.54-20.08c9.4-2.53 18.39-6.27 26.84-11.13l18.8 9.58c3.08 1.57 6.83.98 9.28-1.46l22.26-22.23c2.45-2.45 3.04-6.2 1.47-9.29l-9.59-18.81c4.86-8.48 8.59-17.48 11.13-26.85l20.05-6.51c3.29-1.07 5.53-4.14 5.53-7.6v-31.46c0-3.46-2.23-6.53-5.53-7.6l-20.05-6.51c-2.54-9.38-6.27-18.37-11.13-26.85l9.59-18.82c1.57-3.09.98-6.83-1.47-9.28l-22.26-22.23c-2.45-2.44-6.19-3.03-9.28-1.46l-18.81 9.58c-8.44-4.85-17.44-8.58-26.83-11.13l-6.54-20.09c-.25-.77-.62-1.48-1.07-2.12 8.63-8.68 22.55-13.7 51-13.49 13.51.12 21.8.25 29.81.36 7.12.11 13.93.21 23.95.3v36.81c0 3.23 1.95 6.15 4.94 7.39.99.41 2.03.61 3.06.61 2.08 0 4.13-.81 5.65-2.34l68.91-68.91c3.12-3.1 3.12-8.16 0-11.29zm-246.68 368.85c-26.64 10.49-64.38 11.52-97.79 11.14-2.14-.03-4.19.81-5.71 2.31s-2.37 3.55-2.37 5.68v25.43l-49.61-49.61 49.61-49.61v25.4c0 4.39 3.54 7.95 7.92 7.99 13.5.12 21.78.25 29.79.36 8.86.13 17.22.26 31.89.37 37.91.37 58.43-8.11 71.37-29.88h4.32c-2.54 24.77-15.22 40.89-39.42 50.42zm89.23-269.03c2.38 1.5 5.37 1.63 7.88.36l17.6-8.96 14.03 14.01-8.96 17.58c-1.28 2.5-1.14 5.49.35 7.88 5.89 9.39 10.11 19.59 12.56 30.3.63 2.74 2.65 4.95 5.32 5.82l18.74 6.09v19.84l-18.74 6.09c-2.67.87-4.69 3.08-5.32 5.82-2.45 10.72-6.67 20.91-12.56 30.3-1.49 2.38-1.63 5.36-.35 7.87l8.96 17.6-14.03 14.01-17.6-8.96c-2.51-1.28-5.51-1.14-7.89.37-9.33 5.89-19.5 10.11-30.24 12.54-2.75.62-4.96 2.65-5.84 5.32l-6.11 18.77h-19.83l-6.11-18.77c-.87-2.68-3.09-4.7-5.84-5.32-10.74-2.43-20.91-6.65-30.24-12.54-2.38-1.5-5.38-1.64-7.89-.37l-17.6 8.96-14.03-14.01 8.97-17.57c1.28-2.51 1.15-5.51-.35-7.9-5.9-9.36-10.13-19.55-12.58-30.29-.63-2.74-2.65-4.95-5.32-5.82l-18.74-6.09v-19.84l18.76-6.09c2.68-.87 4.71-3.09 5.33-5.84 2.42-10.71 6.64-20.89 12.55-30.27 1.5-2.39 1.64-5.4.35-7.91l-8.97-17.56 14.04-14.02 17.6 8.96c2.5 1.27 5.49 1.14 7.88-.36 9.34-5.87 19.52-10.09 30.27-12.55 2.74-.63 4.95-2.65 5.82-5.32l6.11-18.77h19.83l6.11 18.77c.87 2.67 3.08 4.69 5.82 5.32 10.74 2.45 20.92 6.68 30.26 12.55zm90.88-44.55v-25.43c0-4.39-3.54-7.96-7.93-7.99-14.6-.12-22.94-.24-31.77-.37-8.04-.12-16.35-.24-29.91-.37-35.61-.28-56.04 7.32-68.94 26.08h-6.25c7.53-48.99 58.23-58.61 136.72-57.74h.09c2.1 0 4.12-.83 5.62-2.31 1.52-1.5 2.37-3.55 2.37-5.68v-25.44l49.61 49.63zm-207.75 127.55c0 35.7 29.06 64.74 64.77 64.74 35.7 0 64.74-29.04 64.74-64.74s-29.04-64.74-64.74-64.74c-35.71 0-64.77 29.04-64.77 64.74zm113.53 0c0 26.88-21.87 48.76-48.76 48.76-26.9 0-48.78-21.87-48.78-48.76 0-26.88 21.88-48.76 48.78-48.76 26.89.01 48.76 21.88 48.76 48.76z" fill="url(#SVGID_1_)"/></svg>